<svg xmlns="http://www.w3.org/2000/svg" viewBox="0 0 189.7 194.25"><title>icon_8</title><path d="M98.17,8.29c16.07,0,39.38,3.38,54.78,20.43,46.41,49,29.82,108.87-5.38,135.82a13.84,13.84,0,0,0-4.68,6,7.39,7.39,0,0,1-5.39,4.63L85.6,185.81a7.41,7.41,0,0,1-1.48.15,7.19,7.19,0,0,1-4.36-1.45,6.39,6.39,0,0,1-1.18-1.1A16.93,16.93,0,0,0,70.1,178C31.43,169.13-1.17,121.5,10.78,68.43,22.4,21.57,80.15,9.75,80.15,9.75s2.4-.47,6.4-.88a115.61,115.61,0,0,1,11.62-.58m0-8.29h0A123.59,123.59,0,0,0,85.71.63c-4.25.43-6.86.93-7.14,1A126.81,126.81,0,0,0,45.8,14.27C22.95,26.94,8.05,45,2.73,66.44-3.34,93.39.79,120.86,14.3,144c12.76,21.82,32.42,37.18,53.94,42.13a8.73,8.73,0,0,1,3.83,2.44,14.41,14.41,0,0,0,2.66,2.55,15.59,15.59,0,0,0,12.53,2.83l51.9-10.64a15.64,15.64,0,0,0,11.46-9.77,5.73,5.73,0,0,1,2-2.39c20.9-16,34.64-41.56,36.78-68.36C191,82.73,187,52.63,159,23,141.8,4,116.42,0,98.17,0Z" style="fill:#fff"/><path d="M152.95,28.73C133.15,6.82,100.32,7.47,86.55,8.88c15.85.45,37.17,4.44,51.58,20.39,46.41,49,29.81,108.87-5.38,135.82a13.84,13.84,0,0,0-4.68,6,7.39,7.39,0,0,1-5.39,4.63l-42.93,8.8a7.26,7.26,0,0,0,5.84,1.3l51.9-10.64a7.39,7.39,0,0,0,5.39-4.63,13.83,13.83,0,0,1,4.68-6C182.76,137.59,199.36,77.73,152.95,28.73Z" style="fill:#c96917"/><path d="M128.08,171.07a13.84,13.84,0,0,1,4.68-6c35.19-27,51.79-86.82,5.38-135.82C123.72,13.32,102.4,9.33,86.55,8.88c-4,.41-6.4.88-6.4.88S22.4,21.57,10.78,68.43C-1.17,121.5,31.43,169.13,70.1,178a16.94,16.94,0,0,1,8.48,5.38,6.38,6.38,0,0,0,1.18,1.1l42.93-8.8A7.39,7.39,0,0,0,128.08,171.07Z" style="fill:#ff7a15"/><path d="M84.08,188.31a9.36,9.36,0,0,1-7.35-3.44,14.65,14.65,0,0,0-7.18-4.55C30.72,171.39-3.92,123,8.49,67.92,20.33,20.11,79.09,7.57,79.68,7.45h0c2-.4,48.88-9.21,75,19.7,26.5,28,30.28,56.31,28.78,75.15-2,25.15-14.89,49.12-34.47,64.12a11.6,11.6,0,0,0-3.92,5,9.71,9.71,0,0,1-7.11,6.09l-51.9,10.64A9.8,9.8,0,0,1,84.08,188.31ZM80.61,12.06c-1.06.22-56.48,12.3-67.54,56.94C1.27,121.37,33.93,167.3,70.63,175.73a19.35,19.35,0,0,1,9.8,6.22,4.77,4.77,0,0,0,4.7,1.55L137,172.86a5,5,0,0,0,3.66-3.17,16.24,16.24,0,0,1,5.45-7c18.54-14.2,30.74-36.91,32.64-60.76,1.43-17.88-2.19-44.82-27.54-71.58C127,3.5,81.46,11.9,80.61,12.06Z" style="fill:#4c2a73"/><ellipse cx="58.7" cy="103.87" rx="10.79" ry="11.38" transform="translate(-19.67 13.91) rotate(-11.59)" style="fill:#4c2a73"/><ellipse cx="63.83" cy="96.18" rx="3.29" ry="3.47" transform="translate(-18.02 14.78) rotate(-11.59)" style="fill:#fff"/><ellipse cx="129.61" cy="89.33" rx="10.79" ry="11.38" transform="translate(-15.3 27.85) rotate(-11.59)" style="fill:#4c2a73"/><ellipse cx="136.8" cy="81.82" rx="3.29" ry="3.47" transform="translate(-13.65 29.14) rotate(-11.59)" style="fill:#fff"/><path d="M28,76.12s.46-15.32,13.6-19.61" style="fill:none;stroke:#4c2a73;stroke-linecap:round;stroke-linejoin:round;stroke-width:7.69812871403763px"/><path d="M144.18,52.3S137.73,38.39,124,39.62" style="fill:none;stroke:#4c2a73;stroke-linecap:round;stroke-linejoin:round;stroke-width:7.69812871403763px"/><path d="M87.7,174,80,136.25a22,22,0,0,1,17.11-25.94h0A22,22,0,0,1,123,127.43l7.74,37.77Z" style="fill:#5e3380"/><path d="M126.17,161.7,90.67,169a18.12,18.12,0,1,1,35.5-7.28Z" style="fill:#ff7a15"/></svg>