<svg xmlns="http://www.w3.org/2000/svg" viewBox="0 0 266.04 191.81"><title>icon_3</title><path d="M110.15,5.73c27.06,0,51,9.39,67.3,26.43,1.31,1.36,2.53,2.78,3.73,4.23l.37.07h11.51a3.41,3.41,0,0,1,3.33,4.11l-2.28,10.8-3.18.31a80.41,80.41,0,0,1,6.67,21.45c2.68,1.14,4.9,4,5.16,8.76.1,1.79.16,3.48.21,5.11a52.29,52.29,0,0,0,1.61-10.86,3.44,3.44,0,0,1,0-.4,50.78,50.78,0,0,0-.74-10.63c-1.26-7.17.74-10.51,2.65-12.06a6.5,6.5,0,0,1,4.15-1.46,8,8,0,0,1,3,.62,10.84,10.84,0,0,1,4.19,3.14c-.06-4.53,1.49-6.94,3-8.17A6.49,6.49,0,0,1,225,45.7a8,8,0,0,1,3,.62,12.35,12.35,0,0,1,6.89,8.39A7.34,7.34,0,0,1,237,52.53a6.47,6.47,0,0,1,3.67-1.13,7.84,7.84,0,0,1,3.54.89c3.7,1.88,6.21,6.19,6.4,11a92.71,92.71,0,0,1-.88,16.32,6.4,6.4,0,0,1,2.09-.35,5.85,5.85,0,0,1,1.08.1c5,.92,8.33,7.43,7.18,14.2-8.19,48-34.26,54.41-37.23,55a42,42,0,0,1-11.11,2h-.15l-.37,0c-.58-.08-13.57-2-22.13-12.17-12.21,26.65-36,41.85-72.56,46.9a85.44,85.44,0,0,1-11.69.81A79.19,79.19,0,0,1,52.31,166.4C33,149.55,21.89,124.57,21.89,97.86a96.52,96.52,0,0,1,.65-11C11.12,73.05,13,52.34,13,52.34l-5.14-.45-2-12.3a2.84,2.84,0,0,1,2.63-3.32c5.6-.33,18.24-1,34.57-1.65l3.19-.1C62.24,16.81,85,5.73,110.15,5.73m0-5.73h0a89.88,89.88,0,0,0-37.8,8.28A93.81,93.81,0,0,0,43.59,28.86l-.85,0c-16.1.62-28.64,1.3-34.68,1.65a8.57,8.57,0,0,0-7.94,10l2,12.3a5.73,5.73,0,0,0,5,4.75c.22,7.36,1.79,20.4,9.46,30.95-.3,3.2-.45,6.27-.45,9.33,0,28.37,11.8,54.93,32.38,72.86a84.55,84.55,0,0,0,56.3,21.09,91.49,91.49,0,0,0,12.48-.87c35.47-4.9,59.57-19.06,73.39-43.19a45.87,45.87,0,0,0,19.76,8.46,8.4,8.4,0,0,0,1.13.08h.47a48.17,48.17,0,0,0,12.27-2.19c2.78-.6,10.72-2.95,19.16-11.13,11.11-10.77,18.59-27.07,22.23-48.44,1.54-9.07-2.7-17.61-9.65-20.21a95.28,95.28,0,0,0,.26-11.23c-.26-6.86-4-13.1-9.53-15.9a13.47,13.47,0,0,0-6.13-1.51,12.26,12.26,0,0,0-3.66.55A16.63,16.63,0,0,0,230.2,41,13.71,13.71,0,0,0,225,40a12.18,12.18,0,0,0-7.76,2.74,12.74,12.74,0,0,0-3.05,3.61,13.39,13.39,0,0,0-3.55-.49,12.18,12.18,0,0,0-7.76,2.74,13,13,0,0,0-3.14,3.74L202,41.74a9.14,9.14,0,0,0-8.94-11h-9.17c-.79-.91-1.55-1.74-2.3-2.53C164.16,10,138.79,0,110.15,0Zm88.43,54.94.07-.08,0,.14,0-.05Z" style="fill:#fff"/><path d="M196.46,93c-2.47,58.27-31,83.16-80.24,90-52.19,7.21-92-35.51-92-85.09S62.7,8.07,110.15,8.07,198.77,38.49,196.46,93Z" style="fill:#ff7a15;stroke:#4c2a73;stroke-miterlimit:10;stroke-width:4.6837027552985px"/><path d="M77.82,45.3c-9.07-6-42-8-50.29-2.88-5.14,3.17-5.14,12.08-2.57,25S38.39,91,55,91,82.81,80.26,85,67.4C86.39,58.88,84.82,49.9,77.82,45.3Z" style="fill:#804ec7"/><path d="M55,91.47c16.57,0,27.84-10.75,30-23.61,1.43-8.52-.14-17.49-7.14-22.1-6.27-4.12-23.9-6.37-36.95-5.68A78,78,0,0,0,25.95,71.31C29.63,82.53,39.92,91.47,55,91.47Z" style="fill:#804ec7"/><path d="M174.13,43.16C165.81,38,132.92,40.07,123.85,46c-7,4.61-8.57,13.58-7.14,22.1,2.16,12.86,13.43,23.61,30,23.61s27.45-10.82,30-23.61S179.28,46.33,174.13,43.16Z" style="fill:#804ec7"/><path d="M27.43,74.92A76.44,76.44,0,0,1,43.79,40c-2.18,0-4.29.15-6.23.34a80,80,0,0,0-12.87,26c.1.51.17,1,.27,1.51A29.54,29.54,0,0,0,27.43,74.92Z" style="fill:#5e348e"/><path d="M43.85,114.44a8.33,8.33,0,0,1,5-8.13c6.32-2.66,20.24-5.94,50.51-5.94,31.92,0,47.5,4.92,54.31,8.18a8.22,8.22,0,0,1,4.64,7.76c-.58,13.34-6.84,51.46-57.7,51.46C51.92,167.78,44.53,128.76,43.85,114.44Z" style="fill:#5e3380"/><path d="M57.67,111.86c14.05-4.66,58.55-6.93,85.18,0" style="fill:none;stroke:#fff;stroke-linecap:round;stroke-linejoin:round;stroke-width:8.7440983479219px"/><path d="M112.07,132.25c-15.9,0-29,12.8-30.95,29.34a65.51,65.51,0,0,0,19.52,1.82c18-.8,30.46-6.08,39.06-13.17h0C134.47,139.55,124.07,132.25,112.07,132.25Z" style="fill:#804ec7"/><ellipse cx="61.05" cy="59.66" rx="9.63" ry="9.13" transform="translate(-0.86 118.43) rotate(-87.85)" style="fill:#4c2a73"/><ellipse cx="66.81" cy="54.37" rx="2.93" ry="2.78" transform="translate(9.98 119.1) rotate(-87.85)" style="fill:#fff"/><ellipse cx="157.47" cy="59.66" rx="9.63" ry="9.13" transform="translate(91.95 214.78) rotate(-87.85)" style="fill:#4c2a73"/><ellipse cx="163.23" cy="54.37" rx="2.93" ry="2.78" transform="matrix(0.04, -1, 1, 0.04, 102.78, 215.45)" style="fill:#fff"/><path d="M196.39,40.56a3.41,3.41,0,0,0-3.33-4.11H181.54S139.25,28.61,114.39,40c0,0-4.86,2.86-13.14,2.29S88.39,40.9,83.11,38.62s-17.86-4.86-40.14-4c-16.33.63-29,1.32-34.57,1.65a2.84,2.84,0,0,0-2.62,3.32l2,12.3,5.14.45S8.77,99.12,51.73,98.87,97.38,63.49,97.38,59.34s7.58-3.85,7.58,0,4.57,31,24,37,46.86,2.57,53.72-15.43,6-29,6-29l5.43-.53ZM85,67.86C82.81,80.72,71.53,91.47,55,91.47S27.51,80.65,25,67.86s-2.57-21.81,2.57-25c8.32-5.13,41.22-3.09,50.29,2.88C84.82,50.37,86.39,59.34,85,67.86Zm91.74.29c-2.55,12.79-13.43,23.61-30,23.61S118.86,81,116.7,68.14c-1.43-8.52.14-17.49,7.14-22.1,9.07-6,42-8,50.29-2.88C179.28,46.33,179.28,55.24,176.71,68.14Z" style="fill:#4c2a73"/><path d="M41.33,83.55a28.93,28.93,0,0,0,10.59,3.72" style="fill:none;stroke:#fff;stroke-linecap:round;stroke-linejoin:round;stroke-width:3.4125645623215px"/><path d="M28.79,50c0,1.26-2.52,19.1,7.87,29.8" style="fill:none;stroke:#fff;stroke-linecap:round;stroke-linejoin:round;stroke-width:3.4125645623215px"/><path d="M134,83.55a28.93,28.93,0,0,0,10.59,3.72" style="fill:none;stroke:#fff;stroke-linecap:round;stroke-linejoin:round;stroke-width:3.4125645623215px"/><path d="M121.24,55.89c0,1.26-2.39,16,8.13,23.94" style="fill:none;stroke:#fff;stroke-linecap:round;stroke-linejoin:round;stroke-width:3.4125645623215px"/><path d="M211.6,147.87s-32.27-4.42-26.32-38.77c2-11.71,2.22-14.63,2.38-24.56.17-10.87,11.87-12.95,12.42-2.53s.2,18.61.2,18.61,9.1-16.2,7-24.09C205.83,71,235.83,86.46,245,101.33c3.84,6.24-8.09,19.68-8.09,19.68S241.54,146.24,211.6,147.87Z" style="fill:#ff7a15;stroke:#4c2a73;stroke-linecap:round;stroke-linejoin:round;stroke-width:5.38499356884935px"/><path d="M200.28,100.62a53,53,0,0,0,6.25-36c-2.66-15.09,10.53-11.93,11.79-1.69,2.75,22.36-3.69,35.61-3.69,35.61" style="fill:#ff7a15;stroke:#4c2a73;stroke-linecap:round;stroke-linejoin:round;stroke-width:5.38499356884935px"/><path d="M214.63,98.55s8.93-24.71,6.26-39.8,10.53-11.93,11.79-1.69c2.75,22.36-3.84,42.89-3.84,42.89" style="fill:#ff7a15;stroke:#4c2a73;stroke-linecap:round;stroke-linejoin:round;stroke-width:5.38499356884935px"/><path d="M228.84,100S237.4,79.34,236,64.08s11.51-11,11.89-.68c.84,22.51-8,41.61-8,41.61" style="fill:#ff7a15;stroke:#4c2a73;stroke-linecap:round;stroke-linejoin:round;stroke-width:5.38499356884935px"/><path d="M239.94,105c2.7-4.83,5-9.93,5.88-14.57,2.94-15,13.34-7.51,11.61,2.67-8.27,48.53-35.24,52.83-35.24,52.83" style="fill:#ff7a15;stroke:#4c2a73;stroke-linecap:round;stroke-linejoin:round;stroke-width:5.38499356884935px"/><path d="M213.54,132.71s-2.68-21.91,14.13-20.92" style="fill:#ff7a15;stroke:#4c2a73;stroke-linecap:round;stroke-linejoin:round;stroke-width:5.38499356884935px"/><path d="M214,121.39s-12.13,1.51-7.78-11.73" style="fill:#ff7a15;stroke:#4c2a73;stroke-linecap:round;stroke-linejoin:round;stroke-width:5.38499356884935px"/></svg>