<svg xmlns="http://www.w3.org/2000/svg" viewBox="0 0 186.23 190.1"><title>icon_7</title><path d="M95.62,8.29c45.5,0,82.32,30.28,82.32,84.94,0,47.76-32.71,88.57-86.89,88.57-45.7,0-82.76-38.72-82.76-86.48C8.29,51.09,28,13.09,87.71,8.59q4-.3,7.91-.3m0-8.29c-2.81,0-5.68.11-8.53.32C30.93,4.55,0,38.29,0,95.32c0,52.26,40.84,94.77,91,94.77,55.15,0,95.18-40.74,95.18-96.86C186.23,37.47,149.81,0,95.62,0Z" style="fill:#fff"/><path d="M177.94,93.24c0,47.76-32.71,88.57-86.89,88.57-45.7,0-82.76-38.72-82.76-86.48C8.29,51.09,28,13.09,87.71,8.59,136.77,4.9,177.94,35.43,177.94,93.24Z" style="fill:#ff7a15"/><path d="M91,184.06c-46.88,0-85-39.81-85-88.74,0-37.79,14.14-83.91,81.5-89,26.15-1.94,49.85,5.57,66.73,21.22S180.19,66,180.19,93.24C180.19,138.37,149.57,184.06,91,184.06ZM95.64,10.55q-3.84,0-7.77.3C24,15.65,10.55,59.44,10.55,95.32c0,46.45,36.11,84.23,80.5,84.23,55.56,0,84.63-43.42,84.63-86.31,0-25.95-8.46-47.51-24.48-62.36C136.93,17.64,117.42,10.55,95.64,10.55Z" style="fill:#4c2a73"/><ellipse cx="49.11" cy="52.48" rx="10.11" ry="11.68" style="fill:#4c2a73"/><ellipse cx="118.76" cy="52.48" rx="10.11" ry="11.68" style="fill:#4c2a73"/><ellipse cx="127.97" cy="47.69" rx="3.29" ry="3.47" transform="translate(-6.97 26.67) rotate(-11.59)" style="fill:#fff"/><ellipse cx="58.1" cy="47.69" rx="3.29" ry="3.47" transform="translate(-8.39 12.64) rotate(-11.59)" style="fill:#fff"/><path d="M30.24,34.91a4.5,4.5,0,0,1-4.48-5c.06-.54,1.63-13.31,12.64-17,14.21-4.76,21.66,5.39,22,5.82A4.51,4.51,0,0,1,53,24c-.36-.48-4.11-5-11.76-2.5-5.52,1.85-6.52,9.4-6.53,9.48A4.53,4.53,0,0,1,30.24,34.91Z" style="fill:#4c2a73"/><path d="M140.15,34.92h-.07a4.51,4.51,0,0,1-4.44-4.59,11.46,11.46,0,0,0-6.06-9.56c-4.41-2.36-9.33,1.73-9.38,1.78a4.51,4.51,0,1,1-5.89-6.84c3.54-3,11.63-7.09,19.5-2.91a20.52,20.52,0,0,1,10.86,17.68A4.51,4.51,0,0,1,140.15,34.92Z" style="fill:#4c2a73"/><path d="M39,128.76s-8.53-10.66-2.61-25.63S56.69,72.92,80.94,72.92s43.14,8.19,50.75,29.9c5.71,16.29-1.41,28.48-12.69,29s-18.35-11.28-35.26-11.28S54.87,142.58,39,128.76Z" style="fill:#5e3380"/><path d="M149.16,55.68a1.64,1.64,0,0,0-2.32,1.6c.2,3.44.58,9.5-1.05,12.83-3.38,6.9.28,15.81,9.59,14.08S165.28,63.54,149.16,55.68Z" style="fill:#fff"/></svg>