<svg xmlns="http://www.w3.org/2000/svg" viewBox="0 0 197.49 189.55"><title>icon_6</title><path d="M98.23,8.29c29.77,0,55.87,16.43,70.45,41.09,2.35,4,6,7.22,10.57,8s8.54,3.62,9.5,8c1.25,5.71,0,13.63-6,25.89a20.56,20.56,0,0,0-1.9,8.05c-2.26,45.66-38.39,81.95-82.64,81.95S17.89,145,15.59,99.4A28.31,28.31,0,0,0,14,90.88C11.85,85.24,8.3,74.7,8.29,67.73S12.75,57,17.21,56.35a14.85,14.85,0,0,0,10.65-7.11C42.46,24.66,68.52,8.29,98.23,8.29m0-8.29C66.44,0,37.47,16.82,20.74,45A6.56,6.56,0,0,1,16,48.15C8.27,49.31,0,55.94,0,67.74c0,7.85,3.37,18.49,6.19,26a20,20,0,0,1,1.13,6c2.54,50.32,42.47,89.73,90.92,89.73s88.44-39.46,90.93-89.83a12.45,12.45,0,0,1,1.07-4.82c6.35-13,8.46-22.95,6.62-31.31-1.63-7.44-7.84-13-16.2-14.39-1.7-.29-3.5-1.8-4.83-4C159.1,16.88,130.1,0,98.23,0Z" style="fill:#fff"/><path d="M182.78,91.26a20.56,20.56,0,0,0-1.9,8.05c-2.26,45.66-38.39,81.95-82.64,81.95S17.89,145,15.59,99.4A28.31,28.31,0,0,0,14,90.88C11.85,85.24,8.3,74.7,8.29,67.73S12.75,57,17.21,56.35a14.86,14.86,0,0,0,10.65-7.11C42.46,24.66,68.52,8.29,98.23,8.29s55.87,16.43,70.45,41.09c2.35,4,6,7.22,10.57,8s8.54,3.62,9.5,8C190,71.08,188.77,79,182.78,91.26Z" style="fill:#ff7a15"/><path d="M98.23,183.51c-45.22,0-82.52-36.89-84.89-84a25.74,25.74,0,0,0-1.5-7.85C9.67,85.87,6,75.05,6,67.73c0-8.27,5.44-12.8,10.85-13.61a12.67,12.67,0,0,0,9-6C41.56,21.75,68.6,6,98.23,6S155,21.81,170.63,48.23c2.24,3.8,5.53,6.33,9,6.92,5.89,1,10.23,4.74,11.32,9.74,1.53,7-.42,15.65-6.15,27.36a18.36,18.36,0,0,0-1.68,7.17C180.8,146.57,143.51,183.51,98.23,183.51Zm0-173c-28,0-53.61,14.89-68.43,39.84a17.16,17.16,0,0,1-12.25,8.19c-3.24.49-7,3.18-7,9.15,0,6.61,3.46,16.85,5.52,22.36a30.26,30.26,0,0,1,1.78,9.2C20.1,144,55.41,179,98.23,179s78.18-35.05,80.39-79.8a22.79,22.79,0,0,1,2.13-8.93h0c5.18-10.6,7.08-18.58,5.79-24.41-.71-3.22-3.57-5.55-7.67-6.25-4.79-.82-9.21-4.13-12.13-9.08C151.94,25.49,126.33,10.55,98.23,10.55Z" style="fill:#4c2a73"/><path d="M28.51,72.86s2.63-9.6,21.43-3,79.33,6.53,97.75,0,25.19,5,20.3,13.7-19.17,47.81-72.18,47.06S24.38,80.86,28.51,72.86Z" style="fill:#5e3380"/><path d="M51.17,78.23S47.5,88,52.86,90.43c8.18,4.3,39,6.2,45.89,6.2s35.58-1.93,45.75-7.47c4.85-2.64,2.48-13.48-1.69-12.52C136.7,78,115,81.28,98.72,81.28,70.62,81.28,56,72.51,51.17,78.23Z" style="fill:#fff"/><path d="M55.19,96.7a4.11,4.11,0,0,0-3.2,5.91,23.61,23.61,0,0,0,5.67,7c12.69,9.9,29.16,13,41.09,13a64.15,64.15,0,0,0,43.78-15.79c4.21-3.57,4.46-10.81.28-9.86-6.15,1.4-27.84,4.63-44.09,4.63C76.17,101.61,62.27,96,55.19,96.7Z" style="fill:#fff"/><path d="M69.39,65.46A4.52,4.52,0,0,1,65,62c-.6-2.45-3.27-9.48-7.45-9.48-4.58,0-6.24,9-6.26,9.11a4.51,4.51,0,0,1-8.92-1.36C43.32,54,47.59,43.5,57.55,43.5c9.71,0,14.77,10.31,16.23,16.4a4.51,4.51,0,0,1-3.34,5.44A4.58,4.58,0,0,1,69.39,65.46Z" style="fill:#4c2a73"/><path d="M147.48,65.46A4.52,4.52,0,0,1,143.09,62c-.6-2.45-3.27-9.48-7.45-9.48-4.58,0-6.24,9-6.26,9.11a4.51,4.51,0,0,1-8.92-1.36c.95-6.23,5.21-16.77,15.17-16.77,9.71,0,14.77,10.31,16.23,16.4a4.51,4.51,0,0,1-3.33,5.44A4.57,4.57,0,0,1,147.48,65.46Z" style="fill:#4c2a73"/><path d="M17.43,76.92a2.25,2.25,0,0,1-2.26-2.24c0-5,1.46-8.76,4.46-11.23,5.11-4.19,12.6-2.71,12.91-2.64a2.26,2.26,0,0,1-.91,4.42s-5.73-1.1-9.16,1.72c-1.89,1.56-2.83,4.14-2.8,7.69a2.25,2.25,0,0,1-2.24,2.27Z" style="fill:#ff9515"/><path d="M174.69,75.62h0a2.26,2.26,0,0,1-2.24-2.27c0-3.56-.92-6.14-2.81-7.7-3.42-2.8-9.08-1.72-9.14-1.71a2.25,2.25,0,1,1-.92-4.41c.32-.07,7.8-1.56,12.92,2.64,3,2.46,4.49,6.24,4.45,11.22A2.25,2.25,0,0,1,174.69,75.62Z" style="fill:#ff9515"/></svg>