<svg xmlns="http://www.w3.org/2000/svg" viewBox="0 0 220.67 194.26"><title>icon_14</title><polygon points="212.89 41.35 152.75 53.3 64.24 70.89 4.09 82.85 7.78 101.38 16.26 99.69 18.37 110.31 27.28 108.54 29.56 120.02 38.61 118.22 40.69 128.66 95.75 117.71 93.67 107.28 102.72 105.48 100.44 94 109.35 92.23 107.24 81.61 117.11 79.65 119.22 90.27 128.13 88.5 130.41 99.98 139.46 98.18 141.54 108.61 196.6 97.67 194.52 87.24 203.57 85.44 201.29 73.96 210.21 72.19 208.1 61.57 216.58 59.88 212.89 41.35" style="fill:none;stroke:#fff;stroke-linecap:round;stroke-linejoin:round;stroke-width:8.18946627699257px"/><path d="M115.69,8.19A89,89,0,0,1,203,79.73c9.57,48.16-21.87,95-70.22,104.6a90.08,90.08,0,0,1-17.56,1.74A89,89,0,0,1,27.9,114.53c-9.57-48.16,21.87-95,70.22-104.6a90,90,0,0,1,17.56-1.74m0-8.19V0A98.51,98.51,0,0,0,96.53,1.89C43.82,12.37,9.43,63.61,19.87,116.12a97.21,97.21,0,0,0,95.35,78.13,98.51,98.51,0,0,0,19.16-1.89c52.71-10.47,87.09-61.72,76.66-114.23A97.22,97.22,0,0,0,115.69,0Z" style="fill:#fff"/><ellipse cx="115.46" cy="97.13" rx="89.26" ry="88.91" transform="translate(-16.72 24.37) rotate(-11.24)" style="fill:#ff7a15;stroke:#4c2a73;stroke-miterlimit:10;stroke-width:6.29958944384044px"/><path d="M134,33.36s15.57-9.66,25.38,5.06" style="fill:none;stroke:#4c2a73;stroke-linecap:round;stroke-linejoin:round;stroke-width:10.7492414516027px"/><path d="M167.56,121.14s-7,18.52-26.74,17.14" style="fill:none;stroke:#4c2a73;stroke-linecap:round;stroke-linejoin:round;stroke-width:10.7492414516027px"/><rect x="4.48" y="67.89" width="151.56" height="18.9" transform="matrix(0.98, -0.19, 0.19, 0.98, -13.54, 17.13)" style="fill:#4c2a73"/><rect x="16.13" y="87.53" width="92.77" height="13.88" transform="translate(-17.21 14) rotate(-11.24)" style="fill:#4c2a73"/><rect x="27.49" y="99" width="74.59" height="13.88" transform="translate(-19.41 14.66) rotate(-11.24)" style="fill:#4c2a73"/><rect x="38.79" y="109.44" width="56.14" height="13.88" transform="translate(-21.4 15.27) rotate(-11.24)" style="fill:#4c2a73"/><rect x="22.21" y="85.91" width="10.51" height="11.45" transform="translate(-17.34 7.11) rotate(-11.24)" style="fill:#fff"/><rect x="34.78" y="94.87" width="10.51" height="11.45" transform="translate(-18.84 9.73) rotate(-11.24)" style="fill:#fff"/><rect x="47.34" y="103.84" width="10.51" height="11.45" transform="translate(-20.34 12.35) rotate(-11.24)" style="fill:#fff"/><rect x="42.87" y="81.8" width="10.51" height="11.45" transform="translate(-16.14 11.06) rotate(-11.24)" style="fill:#fff"/><rect x="55.43" y="90.77" width="10.51" height="11.45" transform="translate(-17.64 13.68) rotate(-11.24)" style="fill:#fff"/><rect x="68" y="99.73" width="10.51" height="11.45" transform="translate(-19.15 16.3) rotate(-11.24)" style="fill:#fff"/><rect x="64.63" y="55.94" width="151.56" height="18.9" transform="translate(290.87 102.16) rotate(168.76)" style="fill:#4c2a73"/><rect x="116.98" y="67.48" width="92.77" height="13.88" transform="translate(338.09 115.57) rotate(168.76)" style="fill:#4c2a73"/><rect x="128.35" y="78.96" width="74.59" height="13.88" transform="translate(344.85 137.87) rotate(168.76)" style="fill:#4c2a73"/><rect x="139.65" y="89.4" width="56.14" height="13.88" transform="translate(350.99 158.13) rotate(168.76)" style="fill:#4c2a73"/><rect x="189.4" y="52.68" width="10.51" height="11.45" transform="translate(396.96 77.74) rotate(168.76)" style="fill:#fff"/><rect x="181.22" y="65.77" width="10.51" height="11.45" transform="translate(383.31 105.26) rotate(168.76)" style="fill:#fff"/><rect x="173.04" y="78.85" width="10.51" height="11.45" transform="translate(369.66 132.78) rotate(168.76)" style="fill:#fff"/><rect x="168.74" y="56.79" width="10.51" height="11.45" transform="translate(356.84 89.9) rotate(168.76)" style="fill:#fff"/><rect x="160.56" y="69.87" width="10.51" height="11.45" transform="translate(343.19 117.43) rotate(168.76)" style="fill:#fff"/><rect x="152.38" y="82.96" width="10.51" height="11.45" transform="translate(329.53 144.94) rotate(168.76)" style="fill:#fff"/></svg>