<svg xmlns="http://www.w3.org/2000/svg" viewBox="0 0 180.81 153.01"><title>icon_2</title><path d="M9.32,5.73A4.18,4.18,0,0,1,10.77,6l162.1,68.56a3.62,3.62,0,0,1-.06,6.7l-43.34,17.4L113,144.9s0,.08-.07.13a3.35,3.35,0,0,1-.17.33,3.59,3.59,0,0,1-.39.6,3.63,3.63,0,0,1-.25.28,3.57,3.57,0,0,1-.6.48c-.06,0-.11.1-.17.14l-.09,0a3.59,3.59,0,0,1-1.09.39h-.63a3.47,3.47,0,0,1-1.17-.18,3.6,3.6,0,0,1-.81-.42c-.08-.06-.16-.13-.24-.19a3.55,3.55,0,0,1-.31-.25l-25.1-25.38L43.77,140.22a3.62,3.62,0,0,1-2.85.18l-.28-.11a3.62,3.62,0,0,1-2-2.4L5.85,10.24A3.62,3.62,0,0,1,7,6.59a3.52,3.52,0,0,1,2.33-.86M9.32,0a9.33,9.33,0,0,0-9,11.65L33.07,139.31a9.32,9.32,0,0,0,5.21,6.2c.24.11.48.2.72.29a9.35,9.35,0,0,0,7.36-.47l34.43-17.47L103,150.26a7,7,0,0,0,.8.69,7.12,7.12,0,0,0,.61.47,9.3,9.3,0,0,0,2.1,1.08,9.19,9.19,0,0,0,3.09.51h.64a6.13,6.13,0,0,0,.92-.08,9,9,0,0,0,2.41-.76,5.76,5.76,0,0,0,.63-.3,6.25,6.25,0,0,0,.82-.55,9.07,9.07,0,0,0,2.86-3.25c.06-.11.15-.28.26-.49a5.89,5.89,0,0,0,.33-.75L134,103l40.94-16.43a9.35,9.35,0,0,0,.17-17.29L13,.72l-.25-.1A9.88,9.88,0,0,0,9.32,0Z" style="fill:#fff"/><path d="M126.6,95.9l-17,47.78-76.35-97S31.72,27.54,43.1,31.59s79.54,43,79.54,43Z" style="fill:#ec5f0c;stroke:#4c2a73;stroke-linecap:round;stroke-linejoin:round;stroke-width:7.24550861342065px"/><path d="M100.78,107.23l8.82,36.46L76.84,110.57S92.39,102,100.78,107.23Z" style="fill:#804ec8;stroke:#4c2a73;stroke-linecap:round;stroke-linejoin:round;stroke-width:7.24550861342065px"/><polygon points="9.36 9.33 171.46 77.89 126.6 95.9 45.51 44.62 100.78 107.22 42.13 136.99 9.36 9.33" style="fill:#ff7a15;stroke:#4c2a73;stroke-linecap:round;stroke-linejoin:round;stroke-width:7.24550861342065px"/></svg>