<svg xmlns="http://www.w3.org/2000/svg" viewBox="0 0 249.03 215.58"><title>icon_12</title><path d="M48.43,125.17a9.37,9.37,0,0,1,8.77,12.65l-4.91,12.88h.31a6.09,6.09,0,0,1,2.13.37,7.38,7.38,0,0,1,4.15,3.88,2.1,2.1,0,0,1,.1.22,7.4,7.4,0,0,1,2.51-.44,7.25,7.25,0,0,1,2.54.46,9.28,9.28,0,0,1,2.45,1.32l3.2-8.6a9.41,9.41,0,0,1,8.78-6.09,9.46,9.46,0,0,1,3.28.59,9.39,9.39,0,0,1,5.5,12.05L71.46,196.68c0,.11-.22.48-.27.58-2.06,4.67-7.6,13.63-19.8,13.63a34,34,0,0,1-11.85-2.38C21,201.57,19,190.89,17.71,183.81a20.16,20.16,0,0,0-1-4.17c-.68-1.49-2.83-3.06-4.9-4.57-3.21-2.33-6.53-4.75-7-8.43a8.33,8.33,0,0,1,2.09-6.34,8.63,8.63,0,0,1,6.44-3.39h.54c5.19,0,10.61,3.88,13.8,6.56l12-32.21a9.41,9.41,0,0,1,8.78-6.09m0-4.68h0a14.1,14.1,0,0,0-13.17,9.13L25.39,156c-4.09-2.54-8-3.82-11.58-3.82l-.79,0a13.37,13.37,0,0,0-9.87,5.17c-3.1,3.95-3.37,7.55-3,9.88.78,5.66,5.29,8.94,8.92,11.58a23.24,23.24,0,0,1,3.43,2.8,25.28,25.28,0,0,1,.65,2.94v.06C14.5,192.28,16.83,205,37.9,212.9a38.88,38.88,0,0,0,13.49,2.68c15.07,0,21.79-11.29,24-16.3.14-.27.31-.64.41-.9l0-.06,15.78-42.23A14.08,14.08,0,0,0,83.38,138a14.14,14.14,0,0,0-4.92-.89,14.1,14.1,0,0,0-13.17,9.13l-1.49,4a11.9,11.9,0,0,0-2.31-.23h-.24a12,12,0,0,0-2.79-2.36l3.12-8.2a14.05,14.05,0,0,0-13.15-19Z" style="fill:#fff"/><path d="M200.6,125.17a9.41,9.41,0,0,1,8.79,6.09l12,32.21c3.19-2.69,8.65-6.56,13.81-6.56h.53a8.63,8.63,0,0,1,6.44,3.39,8.34,8.34,0,0,1,2.09,6.34c-.51,3.69-3.83,6.1-7,8.43-2.07,1.51-4.22,3.07-4.9,4.57a20.16,20.16,0,0,0-1,4.17c-1.29,7.07-3.25,17.75-21.83,24.7a34,34,0,0,1-11.85,2.38c-12.2,0-17.74-9-19.79-13.61a4.38,4.38,0,0,1-.3-.64L161.8,154.45a9.37,9.37,0,0,1,17.55-6.55l3.2,8.6a9.25,9.25,0,0,1,2.45-1.32,7.25,7.25,0,0,1,2.54-.46,7.51,7.51,0,0,1,2.51.43l.09-.22a7.39,7.39,0,0,1,4.16-3.88,6.32,6.32,0,0,1,2.19-.37h.25l-4.9-12.87a9.36,9.36,0,0,1,8.75-12.66m0-4.68v0a14,14,0,0,0-13.14,19l3.13,8.21a12,12,0,0,0-2.8,2.36h-.24a12,12,0,0,0-2.31.22l-1.49-4a14.05,14.05,0,0,0-26.33,9.82l15.76,42.17a8.67,8.67,0,0,0,.48,1.09c2.25,5,9,16.24,24,16.24a38.88,38.88,0,0,0,13.48-2.68c21.07-7.87,23.4-20.62,24.8-28.24v-.05a25.28,25.28,0,0,1,.65-2.94,23.3,23.3,0,0,1,3.43-2.8c3.62-2.64,8.14-5.92,8.92-11.58.32-2.33.06-5.93-3-9.87a13.37,13.37,0,0,0-9.87-5.18l-.79,0c-4.07,0-8.11,1.7-11.57,3.84l-9.88-26.44a14.1,14.1,0,0,0-13.17-9.13Z" style="fill:#fff"/><path d="M231.26,62.33V81.41h-8.73V92.34h-9.18v11.82H204V114.9H147.35V104.16H138V92.34h-9.18V81.41H118.7V92.34h-9.18v11.82H100.2V114.9H43.51V104.16H34.19V92.34H25V81.41H16.28V62.33h215m0-6.09h-215a6.09,6.09,0,0,0-6.09,6.09V81.41a6.09,6.09,0,0,0,6.09,6.09h2.64v4.84A6.09,6.09,0,0,0,25,98.43H28.1v5.73a6.09,6.09,0,0,0,6.09,6.09h3.23v4.66A6.09,6.09,0,0,0,43.51,121H100.2a6.09,6.09,0,0,0,6.09-6.09v-4.66h3.23a6.09,6.09,0,0,0,6.09-6.09V98.43h3.09a6.08,6.08,0,0,0,5.08-2.73,6.08,6.08,0,0,0,5.08,2.73h3.09v5.73a6.09,6.09,0,0,0,6.09,6.09h3.23v4.66a6.09,6.09,0,0,0,6.09,6.09H204a6.09,6.09,0,0,0,6.09-6.09v-4.66h3.23a6.09,6.09,0,0,0,6.09-6.09V98.43h3.09a6.09,6.09,0,0,0,6.09-6.09V87.5h2.64a6.09,6.09,0,0,0,6.09-6.09V62.33a6.09,6.09,0,0,0-6.09-6.09Z" style="fill:#fff"/><path d="M123.77,8.61c49.78,0,90.14,40.2,90.14,89.78s-40.36,89.78-90.14,89.78S33.63,148,33.63,98.39,74,8.61,123.77,8.61m0-8.61C69.32,0,25,44.14,25,98.39s44.3,98.39,98.75,98.39,98.75-44.14,98.75-98.39S178.23,0,123.77,0Z" style="fill:#fff"/><ellipse cx="123.77" cy="98.39" rx="90.14" ry="89.78" style="fill:#ff7a15"/><path d="M123.77,190.52c-51,0-92.48-41.33-92.48-92.13S72.78,6.27,123.77,6.27s92.48,41.33,92.48,92.12S174.77,190.52,123.77,190.52Zm0-179.57C75.36,11,36,50.18,36,98.39s39.39,87.44,87.8,87.44,87.8-39.23,87.8-87.44S172.19,11,123.77,11Z" style="fill:#4c2a73"/><path d="M166.62,128.82c-6.94,1.17-12,10.73-40.62,10.73-20.84,0-31.79-6.67-40-8.27-5.64-1.1-11.19,3.28-9.32,10.49.86,3.31,2.7,7.45,8.89,14.56,7.32,8.4,19.55,16.32,39.66,16.32,25,0,38.22-11.74,45.27-22.52,3.42-5.23,4.28-6.91,5.41-10.23C178.83,131.33,172.65,127.81,166.62,128.82Z" style="fill:#5e3380"/><path d="M85.94,139.5s13.84,8.84,40.52,8.84,39.59-10.54,39.59-10.54" style="fill:none;stroke:#fff;stroke-linecap:round;stroke-linejoin:round;stroke-width:8.20800173055044px"/><rect x="16.28" y="62.33" width="153.05" height="19.08" style="fill:#4c2a73"/><rect x="25.02" y="78.32" width="93.68" height="14.01" style="fill:#4c2a73"/><rect x="34.19" y="90.14" width="75.32" height="14.01" style="fill:#4c2a73"/><rect x="43.51" y="100.89" width="56.69" height="14.01" style="fill:#4c2a73"/><rect x="32.4" y="69.85" width="10.61" height="11.56" style="fill:#fff"/><rect x="43.08" y="81.2" width="10.61" height="11.56" style="fill:#fff"/><rect x="53.76" y="92.55" width="10.61" height="11.56" style="fill:#fff"/><rect x="53.67" y="69.85" width="10.61" height="11.56" style="fill:#fff"/><rect x="64.35" y="81.2" width="10.61" height="11.56" style="fill:#fff"/><rect x="75.03" y="92.55" width="10.61" height="11.56" style="fill:#fff"/><rect x="78.21" y="62.33" width="153.05" height="19.08" transform="translate(309.47 143.73) rotate(180)" style="fill:#4c2a73"/><rect x="128.85" y="78.32" width="93.68" height="14.01" transform="translate(351.39 170.66) rotate(180)" style="fill:#4c2a73"/><rect x="138.03" y="90.14" width="75.32" height="14.01" transform="translate(351.39 194.3) rotate(180)" style="fill:#4c2a73"/><rect x="147.35" y="100.89" width="56.69" height="14.01" transform="translate(351.39 215.79) rotate(180)" style="fill:#4c2a73"/><rect x="204.54" y="69.85" width="10.61" height="11.56" transform="translate(419.68 151.26) rotate(180)" style="fill:#fff"/><rect x="193.86" y="81.2" width="10.61" height="11.56" transform="translate(398.33 173.96) rotate(180)" style="fill:#fff"/><rect x="183.18" y="92.55" width="10.61" height="11.56" transform="translate(376.97 196.66) rotate(180)" style="fill:#fff"/><rect x="183.27" y="69.85" width="10.61" height="11.56" transform="translate(377.14 151.26) rotate(180)" style="fill:#fff"/><rect x="172.59" y="81.2" width="10.61" height="11.56" transform="translate(355.79 173.96) rotate(180)" style="fill:#fff"/><rect x="161.91" y="92.55" width="10.61" height="11.56" transform="translate(334.43 196.66) rotate(180)" style="fill:#fff"/><path d="M178.88,53.58a4.68,4.68,0,0,1-4.33-2.9c-5-12-16.84-7.91-18.17-7.41a4.69,4.69,0,0,1-3.29-8.77c7.47-2.79,23.35-3.77,30.11,12.6a4.69,4.69,0,0,1-4.33,6.47Z" style="fill:#4c2a73"/><path d="M80.92,144.59a7,7,0,0,0-9,4.12L65.5,165.85c2.18-5.86.33-7.49-2.29-8.47a5.09,5.09,0,0,0-6.47,2.86l.16-.44a5.1,5.1,0,0,0-3-6.55c-2-.73-5.16.17-7,4.9L55,137a7,7,0,1,0-13.16-4.92L28.59,167.54S15,153.72,8.67,161.77s7.51,11.14,10.14,16.91S18.24,198,40.36,206.31c19.13,7.15,26.32-4.64,28.67-10,.08-.16.17-.31.24-.48L85,153.63A7,7,0,0,0,80.92,144.59Z" style="fill:#ff7a15"/><path d="M51.38,210.89a34,34,0,0,1-11.85-2.38C21,201.57,19,190.89,17.71,183.81a20.15,20.15,0,0,0-1-4.17c-.68-1.49-2.83-3.06-4.9-4.57-3.21-2.33-6.53-4.75-7-8.43a8.33,8.33,0,0,1,2.09-6.34,8.63,8.63,0,0,1,6.44-3.39c5.36-.28,11,3.77,14.34,6.55l12-32.21a9.37,9.37,0,0,1,17.55,6.56l-4.91,12.88a6.2,6.2,0,0,1,2.44.36,7.38,7.38,0,0,1,4.15,3.88,2.08,2.08,0,0,1,.1.22,7.31,7.31,0,0,1,5,0,9.28,9.28,0,0,1,2.45,1.32l3.2-8.6a9.37,9.37,0,0,1,17.55,6.55L71.46,196.68c0,.11-.22.48-.27.58C69.13,201.93,63.59,210.89,51.38,210.89Zm-37.55-49.3h-.31a3.9,3.9,0,0,0-3,1.61A4,4,0,0,0,9.38,166c.24,1.71,2.74,3.53,5.15,5.29,2.57,1.87,5.21,3.8,6.41,6.41A22.68,22.68,0,0,1,22.32,183c1.17,6.39,2.77,15.14,18.86,21.15,15.51,5.8,22.55-1.55,25.71-8.72l.23-.45,15.73-42.13a4.7,4.7,0,0,0-2.74-6h0a4.69,4.69,0,0,0-6,2.74L67.7,166.65h0A2.34,2.34,0,0,1,63.3,165c1.67-4.49.53-4.92-.91-5.47a2.77,2.77,0,0,0-3.48,1.56,2.34,2.34,0,0,1-4.36-1.71l.16-.44a2.75,2.75,0,0,0-1.61-3.53c-.93-.36-2.72.32-3.95,3.51v0h0a2.34,2.34,0,1,1-4.37-1.66h0l8.05-21.14a4.68,4.68,0,0,0-6.34-5.88A4.64,4.64,0,0,0,44,132.89L30.79,168.36a2.34,2.34,0,0,1-3.86.82C24.81,167,18.42,161.59,13.83,161.59Z" style="fill:#4c2a73"/><path d="M168.12,144.59a7,7,0,0,1,9,4.12l6.38,17.13c-2.18-5.86-.33-7.49,2.29-8.47a5.09,5.09,0,0,1,6.47,2.86l-.16-.44a5.1,5.1,0,0,1,3-6.55c2-.73,5.16.17,7,4.9L194,137a7,7,0,0,1,13.16-4.92l13.25,35.47s13.58-13.82,19.92-5.78-7.51,11.14-10.14,16.91.57,19.37-21.55,27.63c-19.13,7.15-26.32-4.64-28.67-10-.07-.16-.17-.31-.24-.48L164,153.63A7,7,0,0,1,168.12,144.59Z" style="fill:#ff7a15"/><path d="M197.65,210.89c-12.2,0-17.74-9-19.79-13.61a4.42,4.42,0,0,1-.3-.64L161.8,154.45a9.37,9.37,0,0,1,17.55-6.55l3.2,8.6a9.25,9.25,0,0,1,2.45-1.32,7.37,7.37,0,0,1,5,0l.09-.22a7.39,7.39,0,0,1,4.16-3.88,6.46,6.46,0,0,1,2.44-.36l-4.9-12.87a9.37,9.37,0,0,1,17.54-6.57l12,32.21c3.3-2.78,9-6.83,14.34-6.55a8.63,8.63,0,0,1,6.44,3.39,8.34,8.34,0,0,1,2.09,6.34c-.51,3.69-3.83,6.1-7,8.43-2.07,1.51-4.22,3.07-4.9,4.57a20.15,20.15,0,0,0-1,4.17c-1.29,7.07-3.25,17.75-21.83,24.7A34,34,0,0,1,197.65,210.89Zm-27.08-64.4a4.58,4.58,0,0,0-1.63.3h0a4.69,4.69,0,0,0-2.75,6L182,195c3.34,7.53,10.36,14.87,25.89,9.07,16.09-6,17.69-14.76,18.86-21.15a22.65,22.65,0,0,1,1.38-5.26c1.19-2.62,3.84-4.55,6.41-6.41,2.41-1.76,4.91-3.58,5.15-5.29a4,4,0,0,0-1.13-2.79,3.9,3.9,0,0,0-3-1.61c-4.71-.45-11.23,5.38-13.39,7.58a2.34,2.34,0,0,1-3.86-.82L205,132.89a4.64,4.64,0,0,0-2.44-2.61,4.7,4.7,0,0,0-3.58-.13,4.69,4.69,0,0,0-2.74,6l8,21.12v0h0A2.34,2.34,0,1,1,199.9,159h0v0c-1.24-3.2-3-3.84-4-3.51a2.72,2.72,0,0,0-1.53,1.44,2.75,2.75,0,0,0-.08,2.1l.17.46a2.34,2.34,0,0,1-4.37,1.68,2.75,2.75,0,0,0-3.49-1.56c-1.44.54-2.58,1-.91,5.46a2.34,2.34,0,0,1-4.39,1.64h0L175,149.53a4.71,4.71,0,0,0-4.4-3Zm-2.45-1.9h0Z" style="fill:#4c2a73"/><path d="M85.54,135.46" style="fill:#5e3380"/><path d="M97.72,166.18s22.92-15.52,62.61-4.49c-4.86,4-14,9.48-27.87,10.62C109.71,174.59,97.72,166.18,97.72,166.18Z" style="fill:#804ec7"/></svg>