<svg xmlns="http://www.w3.org/2000/svg" viewBox="0 0 189.2 210.7"><title>icon_10</title><path d="M54.34,114.93A9.06,9.06,0,0,1,62,119.44c2,3.26,4.29,10.94-2.93,25.72a2.28,2.28,0,0,0,0,1.63,2.79,2.79,0,0,0,2,.93l15.45,2.52c7.27,1.18,9.4,5.91,9,9.94a9.81,9.81,0,0,1-3.63,6.71,8.87,8.87,0,0,1,1.3,6.57,7.25,7.25,0,0,1-3.35,5.2,7.67,7.67,0,0,1-1.18.59,8.87,8.87,0,0,1,.81,5.82c-.64,3.93-2.63,5.83-4.18,6.74-.24.14-.48.26-.71.37a7.14,7.14,0,0,1,1.06,5.27c-1,6-3.4,8.58-8.37,8.58a19.78,19.78,0,0,1-3.16-.28c-2.47-.4-7.46-.9-12.76-1.42-7.66-.76-16.33-1.61-21-2.53-8.42-1.65-15.32-7.34-16.77-13.84a2.3,2.3,0,0,1,0-.88l6.24-38.24a2.35,2.35,0,0,1,.52-1.13,45.82,45.82,0,0,1,19.42-12.77,2.71,2.71,0,0,1,.49-.1c3.42-.32,4.42-3.65,5.67-9.1,1.1-4.81,2.46-10.78,8.38-10.78h.1m0-4.68h-.1c-9.65,0-11.79,9.38-12.94,14.42-.29,1.28-1,4.56-1.69,5.5a7.41,7.41,0,0,0-1.28.27l-.06,0a50.89,50.89,0,0,0-21.59,14.23,7,7,0,0,0-1.55,3.38L8.89,186.3A6.91,6.91,0,0,0,9,189c1.87,8.4,10.09,15.4,20.44,17.43,4.93,1,13.7,1.84,21.44,2.6,5,.49,10.12,1,12.46,1.38a24.26,24.26,0,0,0,3.91.34c7.27,0,11.64-4.21,13-12.51a12.38,12.38,0,0,0,0-4.35,14.64,14.64,0,0,0,3.88-8,15.06,15.06,0,0,0,.06-4.6,12.16,12.16,0,0,0,3.65-7,14.24,14.24,0,0,0-.35-6.4,15.31,15.31,0,0,0,2.72-7.13,13.12,13.12,0,0,0-2.52-9.36c-1.58-2.09-4.66-4.77-10.36-5.7l-12.31-2c5.83-13.77,3.89-22,1.06-26.62a13.66,13.66,0,0,0-11.6-6.74Z" style="fill:#fff"/><path d="M82.95,9.31c47-6.16,90.4,28.71,96.84,77.88s-26.49,94-73.54,100.17-90.4-28.71-96.84-77.88S35.9,15.47,82.95,9.31M81.83.77c-51.68,6.76-88,56-81,109.82s54.81,92.06,106.49,85.3,88-56,81-109.82S133.51-6,81.83.77Z" style="fill:#fff"/><ellipse cx="94.6" cy="98.34" rx="85.92" ry="89.78" transform="translate(-11.96 13.1) rotate(-7.45)" style="fill:#ff7a15"/><path d="M106.55,189.68C58.3,196,13.68,160.15,7.09,109.78S34.39,13.3,82.64,7s92.87,29.53,99.46,79.9S154.8,183.37,106.55,189.68ZM83.25,11.63c-45.69,6-77.78,49.74-71.52,97.54S60.25,191,105.94,185s77.78-49.74,71.52-97.55S128.95,5.66,83.25,11.63Z" style="fill:#4c2a73"/><circle cx="52.19" cy="63.4" r="12.13" transform="matrix(0.99, -0.13, 0.13, 0.99, -7.78, 7.31)" style="fill:#4c2a73"/><circle cx="126.59" cy="53.67" r="12.13" transform="translate(-5.89 16.87) rotate(-7.45)" style="fill:#4c2a73"/><path d="M32.42,94.28s-.65-6.9,61.24-15c51.37-6.72,58.08-1,59.38,1.8,2.46,5.37.08,51.44-54.17,60.28C48.5,149.58,24.92,104.18,32.42,94.28Z" style="fill:#5e3380"/><path d="M40.91,99.56s51.4-15.81,100.68-13.17" style="fill:none;stroke:#fff;stroke-linecap:round;stroke-linejoin:round;stroke-width:9.36740551059702px"/><path d="M74,136.35s2-16.15,23.13-18.92c23.19-3,27.21,12.33,27.21,12.33S97.76,142.54,74,136.35Z" style="fill:#ff7a15"/><path d="M51.94,27.74s-17.21-4.31-21.52,12.9" style="fill:none;stroke:#4c2a73;stroke-linecap:round;stroke-linejoin:round;stroke-width:9.36740551059702px"/><path d="M115,19.49s15.52-8.59,24.11,6.93" style="fill:none;stroke:#4c2a73;stroke-linecap:round;stroke-linejoin:round;stroke-width:9.36740551059702px"/><ellipse cx="136.38" cy="46.62" rx="3.41" ry="3.6" transform="translate(-7.75 47.04) rotate(-19.04)" style="fill:#fff"/><ellipse cx="62.63" cy="56.27" rx="3.41" ry="3.6" transform="translate(-14.93 23.51) rotate(-19.04)" style="fill:#fff"/><path d="M56.93,144.22s-2.09,4.86,3.73,5.81l15.45,2.52c11.4,1.86,6.35,13,3.1,12.86a51.71,51.71,0,0,1-7.87-1.15s10.83.57,9.48,8.83c-1.16,7.09-11.55,3.84-11.55,3.84s9.12-.12,7.83,7.78C75.7,193.3,66.88,190,66.88,190s7.3,1.45,6.39,7-2.76,7.35-8.84,6.36-25.87-2.4-33.68-3.93S17,192.83,15.82,187.43l6.24-38.24a43.75,43.75,0,0,1,18.34-12c10.3-1,5.34-20,13.91-19.87C60.47,117.34,65.9,125.92,56.93,144.22Z" style="fill:#ff7a15"/><path d="M67.21,206a19.79,19.79,0,0,1-3.16-.28c-2.46-.4-7.46-.9-12.76-1.42-7.66-.76-16.33-1.61-21-2.53-8.42-1.65-15.32-7.34-16.77-13.84a2.3,2.3,0,0,1,0-.88l6.24-38.24a2.35,2.35,0,0,1,.52-1.13,45.82,45.82,0,0,1,19.42-12.77,2.71,2.71,0,0,1,.49-.1c3.42-.32,4.42-3.65,5.67-9.1,1.1-4.81,2.46-10.78,8.38-10.78h.1A9.06,9.06,0,0,1,62,119.44c2,3.26,4.29,10.94-2.93,25.72a2.28,2.28,0,0,0,0,1.63,2.79,2.79,0,0,0,2,.93l15.45,2.52c7.27,1.18,9.4,5.91,9,9.94a9.81,9.81,0,0,1-3.63,6.71,8.87,8.87,0,0,1,1.3,6.57,7.25,7.25,0,0,1-3.35,5.2,7.67,7.67,0,0,1-1.18.59,8.87,8.87,0,0,1,.81,5.82c-.64,3.93-2.63,5.83-4.18,6.74-.24.14-.48.26-.71.37a7.14,7.14,0,0,1,1.06,5.27C74.61,203.42,72.18,206,67.21,206Zm-49-18.68c1.26,4.51,6.64,8.61,13,9.86,4.44.87,13,1.72,20.55,2.47,5.6.55,10.44,1,13,1.46,4.8.78,5.45-.14,6.15-4.42.37-2.32-2-3.53-3.45-4a11.84,11.84,0,0,1-1.45-.42,2.34,2.34,0,0,1,1.27-4.49,12.71,12.71,0,0,1,1.46.39,6.19,6.19,0,0,0,4.09-.38,4.54,4.54,0,0,0,1.91-3.44,3.87,3.87,0,0,0-.64-3.31,4.27,4.27,0,0,0-1.55-1.07,20.62,20.62,0,0,1-4-.78,2.34,2.34,0,0,1,.67-4.58,14.59,14.59,0,0,1,4.37.73,6.64,6.64,0,0,0,3.72-.64,2.54,2.54,0,0,0,1.18-2,4.12,4.12,0,0,0-.72-3.42,7.28,7.28,0,0,0-3.42-2.07c-2-.32-3.47-.66-3.57-.69A2.34,2.34,0,0,1,69,163.92a2.38,2.38,0,0,1,2.44-2,18.25,18.25,0,0,1,4,.74c1.18.18,2.53.35,3.82.42a6,6,0,0,0,1.47-4.42c-.24-2-1.94-3.28-5.07-3.79l-15.45-2.52c-3.21-.52-4.67-2.09-5.34-3.31a7,7,0,0,1-.16-5.74l0-.1C59.35,134,60.54,126,58,121.9a4.41,4.41,0,0,0-3.74-2.29h0c-1.86,0-2.63,1.88-3.83,7.14-1.15,5-2.72,11.89-9.53,12.69a42,42,0,0,0-16.63,10.8Z" style="fill:#4c2a73"/></svg>