<svg xmlns="http://www.w3.org/2000/svg" xmlns:xlink="http://www.w3.org/1999/xlink" viewBox="0 0 187.7 225.12"><defs><clipPath id="a"><rect x="34.31" y="17.08" width="115.1" height="190.97" rx="12.19" ry="12.19" transform="translate(-23.83 24.67) rotate(-13.56)" style="fill:#ff7a15;stroke:#4c2a73;stroke-miterlimit:10;stroke-width:5.6252765283339px"/></clipPath></defs><title>icon_5</title><path d="M117.21,5.73a14,14,0,0,1,13.56,10.68l2.39,9.92c.46-.05.93-.11,1.4-.13l.85,0A19.07,19.07,0,0,1,142,63.1L170.32,180.4A14,14,0,0,1,160,197.23L69.79,219A13.94,13.94,0,0,1,53,208.7l-5.22-21.63h0L13.41,44.72A14,14,0,0,1,23.7,27.89L113.94,6.12a13.92,13.92,0,0,1,3.27-.39m0-5.73h0a19.69,19.69,0,0,0-4.62.55L22.36,22.32A19.71,19.71,0,0,0,7.84,46.06L42.16,188.35v.06L47.39,210a19.67,19.67,0,0,0,23.75,14.52l90.23-21.76a19.71,19.71,0,0,0,14.52-23.75L148.67,66.16a24.8,24.8,0,0,0-11-45.61l-1.32-5.49A19.63,19.63,0,0,0,117.21,0Z" style="fill:#fff"/><rect x="34.31" y="17.08" width="115.1" height="190.97" rx="12.19" ry="12.19" transform="translate(-23.83 24.67) rotate(-13.56)" style="fill:#ff7a15"/><g style="clip-path:url(#a)"><polygon points="184.24 152.94 28.61 193.6 3.3 70.64 151.9 33.14 184.24 152.94" style="fill:#804ec8;stroke:#4c2a73;stroke-miterlimit:10;stroke-width:5.6252765283339px"/></g><rect x="34.31" y="17.08" width="115.1" height="190.97" rx="12.19" ry="12.19" transform="translate(-23.83 24.67) rotate(-13.56)" style="fill:none;stroke:#4c2a73;stroke-miterlimit:10;stroke-width:5.6252765283339px"/><line x1="50.47" y1="186.41" x2="162.37" y2="159.42" style="fill:none;stroke:#4c2a73;stroke-linecap:round;stroke-linejoin:round;stroke-width:5.6252765283339px"/><line x1="21.32" y1="65.52" x2="133.22" y2="38.53" style="fill:none;stroke:#4c2a73;stroke-linecap:round;stroke-linejoin:round;stroke-width:5.6252765283339px"/><path d="M103.09,82A17.52,17.52,0,0,0,91.47,92a3.33,3.33,0,0,1-5,1.25A17.52,17.52,0,0,0,71.51,89.9c-9.87,2.45-15.68,13.28-13,24.17,6.35,25.55,42.78,28.3,42.78,28.3s30.43-21.34,24.54-45C123.15,86.43,113,79.59,103.09,82Z" style="fill:#ff9515;stroke:#4c2a73;stroke-miterlimit:10;stroke-width:5.6252765283339px"/><line x1="50.71" y1="44.38" x2="97.42" y2="33.12" style="fill:none;stroke:#4c2a73;stroke-linecap:round;stroke-linejoin:round;stroke-width:5.6252765283339px"/><circle cx="111.89" cy="187.31" r="7.64" transform="translate(-40.79 31.45) rotate(-13.56)" style="fill:#5e3380"/><circle cx="135.33" cy="45.26" r="16.73" transform="translate(-1.71 5.49) rotate(-2.31)" style="fill:#ff9515;stroke:#4c2a73;stroke-miterlimit:10;stroke-width:4.6837027552985px"/><path d="M140.27,52.77H130.4a.69.69,0,0,1-.8-.8v-2.7a.85.85,0,0,1,.19-.61.84.84,0,0,1,.61-.19h2.5V41h-2.05a.69.69,0,0,1-.8-.8v-2.7a.84.84,0,0,1,.19-.61.85.85,0,0,1,.61-.19h6.48a.69.69,0,0,1,.81.8v11h2.14a.69.69,0,0,1,.81.81V52a.69.69,0,0,1-.81.8Z" style="fill:#4c2a73"/></svg>