<svg xmlns="http://www.w3.org/2000/svg" viewBox="0 0 189.34 189.9"><title>icon_11</title><path d="M91,8.29c55.09,0,88.38,36.5,88.38,84.26S151.24,181.61,91,181.61c-45.7,0-82.76-41.29-82.76-89.05S38.8,8.29,91,8.29M91,0C36.59,0,0,37.2,0,92.56c0,52.77,41.7,97.34,91,97.34,58.72,0,96.67-38.21,96.67-97.34C187.72,38.06,148,0,91,0Z" style="fill:#fff"/><path d="M179.42,92.56c0,47.76-28.18,89.05-88.38,89.05-45.7,0-82.76-41.29-82.76-89.05S38.8,8.29,91,8.29C146.13,8.29,179.42,44.79,179.42,92.56Z" style="fill:#ff7a15"/><path d="M91,183.86C45,183.86,6,142,6,92.56,6,40.81,40.2,6,91,6c54.21,0,90.64,34.77,90.64,86.52C181.68,148,146.11,183.86,91,183.86ZM91,10.55c-48.15,0-80.5,33-80.5,82,0,47,36.86,86.8,80.5,86.8,41.63,0,86.12-22.8,86.12-86.8C177.17,43.5,142.56,10.55,91,10.55Z" style="fill:#4c2a73"/><path d="M62.44,81.26s.14-6.67,33.84-6.67c28,0,31.17,6.27,31.67,9.14.94,5.43-3.56,49.14-33.22,50.81C67.17,136.09,57.73,89.78,62.44,81.26Z" style="fill:#5e3380"/><path d="M119.4,93.11a4.49,4.49,0,0,1-1.48-.25c-19.41-6.75-46.35-1.58-46.62-1.52a4.51,4.51,0,0,1-1.75-8.86c1.2-.24,29.58-5.71,51.34,1.86a4.51,4.51,0,0,1-1.48,8.77Z" style="fill:#fff"/><path d="M40.24,85.68a2.29,2.29,0,0,1-.6-.08c-1.39-.38-34-9.68-35.25-35.21a21.84,21.84,0,0,1,4.81-15,18.31,18.31,0,0,1,13.33-6.89l.88,0A18.32,18.32,0,0,1,37.2,34.92a.79.79,0,0,0,.6.27.81.81,0,0,0,.65-.33,18.42,18.42,0,0,1,14-7.82l.88,0c10.29,0,18.78,8.78,19.33,20,1.18,23.71-30.15,37.89-31.48,38.48A2.28,2.28,0,0,1,40.24,85.68Z" style="fill:#804ec7"/><path d="M53.31,29.26c9,0,16.58,7.83,17.08,17.86C71.5,69.56,40.24,83.42,40.24,83.42S7.85,74.47,6.65,50.28C6.14,40,13.3,31.23,22.64,30.76l.77,0a16.2,16.2,0,0,1,12.11,5.67,3.07,3.07,0,0,0,4.77-.24,16.12,16.12,0,0,1,12.25-6.9l.77,0m0-4.51-1,0a20.51,20.51,0,0,0-14.62,7.4,20.37,20.37,0,0,0-14.29-5.94l-1,0C10.6,26.84,1.51,37.72,2.14,50.5,3.49,77.64,37.59,87.37,39,87.77a4.51,4.51,0,0,0,3-.22c1.39-.62,34.08-15.41,32.82-40.65-.62-12.42-10.1-22.15-21.58-22.15Z" style="fill:#4c2a73"/><path d="M46.47,38.93a1.67,1.67,0,0,1-1-.34,1.65,1.65,0,0,1-.29-2.31A8.11,8.11,0,0,1,52.27,33a1.64,1.64,0,0,1,0,3.29c-2.48,0-3.53.73-4.51,2A1.65,1.65,0,0,1,46.47,38.93Z" style="fill:#fff"/><path d="M43.84,76.23a1.64,1.64,0,0,1-.67-3.15c.22-.1,21.73-9.85,21-24.87A12.06,12.06,0,0,0,57,37.49a1.64,1.64,0,0,1,1.24-3,15.35,15.35,0,0,1,9.18,13.6c.85,17.28-22,27.61-22.95,28A1.61,1.61,0,0,1,43.84,76.23Z" style="fill:#fff"/><path d="M151.27,85.68a2.23,2.23,0,0,1-.81-.15c-1.34-.52-32.88-12.94-31.65-38.47.54-11.23,9-20,19.32-20l.85,0a18.44,18.44,0,0,1,14,7.8.82.82,0,0,0,1.26.06A18.32,18.32,0,0,1,168,28.46l.85,0a18.3,18.3,0,0,1,13.34,6.86,21.85,21.85,0,0,1,4.83,15C185.93,74,153.37,85.11,152,85.57A2.3,2.3,0,0,1,151.27,85.68Z" style="fill:#804ec7"/><path d="M138.13,29.29l.75,0a16.12,16.12,0,0,1,12.27,6.88,3.06,3.06,0,0,0,4.77.23A16.2,16.2,0,0,1,168,30.72l.74,0c9.35.45,16.52,9.17,16,19.49-1.07,22.44-33.53,33.2-33.53,33.2S119.9,71.37,121.06,47.17c.48-10,8-17.89,17.07-17.89m0-4.51h0c-11.5,0-21,9.74-21.58,22.18-1.3,27.14,31.69,40.14,33.1,40.68a4.52,4.52,0,0,0,3,.07c1.45-.48,35.41-12,36.62-37.27A24.1,24.1,0,0,0,184,33.91a20.53,20.53,0,0,0-15-7.68l-1,0a20.36,20.36,0,0,0-14.31,6,20.51,20.51,0,0,0-14.63-7.37l-1,0Z" style="fill:#4c2a73"/><path d="M161.25,38.93a1.66,1.66,0,0,1-1-.34,1.65,1.65,0,0,1-.29-2.31A8.11,8.11,0,0,1,167.06,33a1.64,1.64,0,0,1,0,3.29c-2.48,0-3.53.73-4.51,2A1.65,1.65,0,0,1,161.25,38.93Z" style="fill:#fff"/><path d="M158.62,76.23a1.64,1.64,0,0,1-.67-3.15c.22-.1,21.73-9.85,21-24.87a12.06,12.06,0,0,0-7.13-10.72,1.64,1.64,0,0,1,1.24-3,15.35,15.35,0,0,1,9.18,13.6c.85,17.28-22,27.61-22.95,28A1.61,1.61,0,0,1,158.62,76.23Z" style="fill:#fff"/></svg>