<svg xmlns="http://www.w3.org/2000/svg" viewBox="0 0 199.35 164.78"><title>icon_4</title><path d="M78.63,5.73c29,0,54.52,17.3,64,43.22,26.67,4.75,45.86,26.62,45.86,52.6a51.33,51.33,0,0,1-11.32,32.16c.5,3.46,2.64,14.51,10.24,20.35l6.2,4.77-7.82.22h-.51a69.2,69.2,0,0,1-31.18-8.18,58.23,58.23,0,0,1-21.93,4.26,57.53,57.53,0,0,1-44.67-21,71.73,71.73,0,0,1-8.86.55A70.33,70.33,0,0,1,52,129.42a83.43,83.43,0,0,1-37.89,10h-.53l-7.82-.22,6.2-4.77C21.56,127,24.09,113,24.62,109.07A61.72,61.72,0,0,1,10.84,70.19c0-35.55,30.41-64.46,67.79-64.46m0-5.73C38.09,0,5.11,31.49,5.11,70.19a67.27,67.27,0,0,0,13.44,40.39c-.92,4.67-3.52,14.22-10.12,19.3l-6.2,4.77a5.73,5.73,0,0,0,3.34,10.27l7.82.22h.69a88.53,88.53,0,0,0,38.25-9.43,75.78,75.78,0,0,0,26.31,4.68c2.14,0,4.3-.09,6.45-.27a63.92,63.92,0,0,0,68.64,17,74.37,74.37,0,0,0,31.55,7.64h.67l7.82-.22a5.73,5.73,0,0,0,3.34-10.27l-6.2-4.77c-4.09-3.14-6.55-9.11-7.65-14.35a56.89,56.89,0,0,0,11-33.62,57.83,57.83,0,0,0-14.34-38A62.53,62.53,0,0,0,146.84,44a70.26,70.26,0,0,0-25.67-31.09A75.6,75.6,0,0,0,78.63,0Z" style="fill:#fff"/><path d="M132.17,50.74c29.57,0,53.54,22.75,53.54,50.81a48.93,48.93,0,0,1-11.45,31.33h0s1.28,15.57,11.44,23.38a66.31,66.31,0,0,1-31.44-8.48,55.7,55.7,0,0,1-22.1,4.57c-29.57,0-53.54-22.75-53.54-50.81S102.6,50.74,132.17,50.74Z" style="fill:#804ec8;stroke:#4c2a73;stroke-linecap:round;stroke-linejoin:round;stroke-width:5.56198858982095px"/><path d="M78.63,8.51c-35.9,0-65,27.62-65,61.68a59.41,59.41,0,0,0,13.9,38h0S26,127.14,13.63,136.63a80.52,80.52,0,0,0,38.17-10.29,67.62,67.62,0,0,0,26.84,5.55c35.9,0,65-27.62,65-61.68S114.53,8.51,78.63,8.51Z" style="fill:#ff7a15;stroke:#4c2a73;stroke-linecap:round;stroke-linejoin:round;stroke-width:5.56198858982095px"/><circle cx="49.01" cy="70.63" r="8.63" style="fill:#804ec8;stroke:#4c2a73;stroke-miterlimit:10;stroke-width:5.56198858982095px"/><circle cx="78.63" cy="70.63" r="8.63" style="fill:#804ec8;stroke:#4c2a73;stroke-miterlimit:10;stroke-width:5.56198858982095px"/><circle cx="108.25" cy="70.63" r="8.63" style="fill:#804ec8;stroke:#4c2a73;stroke-miterlimit:10;stroke-width:5.56198858982095px"/></svg>