<svg xmlns="http://www.w3.org/2000/svg" viewBox="0 0 193.18 205.71"><title>icon_9</title><path d="M54.74,120.44a8,8,0,0,1,3.66,1c5.46,2.81,2.78,9,1.78,11.3-.63,1.46-1.61,3.74-2.69,6.27,5.2-6.43,10.71-13.1,12.3-14.49a5.62,5.62,0,0,1,3.77-1.35,7.26,7.26,0,0,1,5,2.06c2,2,3.25,5.75-.12,9.84-2.94,3.57-9.61,11.78-14.83,18.23a5.41,5.41,0,0,1,1.6.78c1.89,1.34,3.87,3,4.19,5.5a4.35,4.35,0,0,1,0,.53h.13l.46,0a6.12,6.12,0,0,1,4.32,1.8c5.15,5,1.8,13.91-2.08,18.36-.62.71-1.45,2-2.49,3.49C65.3,190.32,58,201.2,48.95,201.2c-.35,0-.7,0-1.06,0-10.15-1-28.85-9.74-31-17.93-.19-.78-4.15-18.1,5.61-31.29,2.38-3.59,5.11-4.37,7-4.37h0c2.73,0,5.09,1.62,6.74,3.2,3.52-7.92,9.49-20.47,11.68-24.91,1.38-2.79,3-4.46,5-5.11a5.8,5.8,0,0,1,1.84-.3m0-4.51h0a10.33,10.33,0,0,0-3.27.53c-3.16,1-5.66,3.46-7.6,7.39-1.7,3.43-6,12.52-9.57,20.23a12.25,12.25,0,0,0-4.8-1c-2.45,0-7,.82-10.7,6.29-11,14.93-6.5,34.13-6.3,34.94l0,.09c3,11.25,24.61,20.29,34.94,21.27.54,0,1,.07,1.48.07,11.4,0,19.63-12.17,24.55-19.45l.25-.37c.75-1.11,1.52-2.25,1.9-2.69,5.17-5.93,9.15-17.47,1.83-24.57A10.87,10.87,0,0,0,73,156a12.35,12.35,0,0,0-2.78-3.68c4.53-5.59,9.35-11.51,11.71-14.38A12.32,12.32,0,0,0,85,129a11,11,0,0,0-3.33-7,11.82,11.82,0,0,0-8.14-3.33,10.15,10.15,0,0,0-6.76,2.49,17,17,0,0,0-1.4,1.39,10.32,10.32,0,0,0-4.93-5.1,12.51,12.51,0,0,0-5.73-1.5Z" style="fill:#fff"/><path d="M92.55,5.86c54.91,0,94.76,36.54,94.76,86.89,0,48.21-29.6,82.42-75.4,89.79A22.57,22.57,0,0,1,80.7,183c-41.63-6.43-74.84-45.1-74.84-90.27,0-52,34.84-86.89,86.68-86.89m0-5.86c-27,0-50.18,8.88-66.94,25.68S0,65.67,0,92.76a99,99,0,0,0,23.18,63.43c14.45,17.24,33.91,28.69,55,32.36a28.39,28.39,0,0,0,36.44-.51c23.23-4.1,42.8-14.9,56.68-31.29,14.34-16.93,21.92-39.06,21.92-64,0-26-10.19-49.68-28.69-66.65S120.58,0,92.55,0Z" style="fill:#fff"/><path d="M118.88,118.93v49.32a22.87,22.87,0,0,1-45.73,0V118.93h45.73m0-8.29H73.15a8.29,8.29,0,0,0-8.29,8.29v49.32a31.16,31.16,0,0,0,62.32,0V118.93a8.29,8.29,0,0,0-8.29-8.29Z" style="fill:#fff"/><path d="M96,191.31a25.15,25.15,0,0,1-25.12-25.12V116.87a2.26,2.26,0,0,1,2.26-2.26h45.73a2.26,2.26,0,0,1,2.26,2.26v49.32A25.15,25.15,0,0,1,96,191.31Z" style="fill:#ff7a15"/><path d="M118.88,116.87v49.32a22.87,22.87,0,0,1-45.73,0V116.87h45.73m0-4.51H73.15a4.51,4.51,0,0,0-4.51,4.51v49.32a27.38,27.38,0,0,0,54.75,0V116.87a4.51,4.51,0,0,0-4.51-4.51Z" style="fill:#4c2a73"/><path d="M185.06,92.76c0,48.45-32,89-92.2,89-45.7,0-84.73-40.57-84.73-89S40.3,8.15,92.55,8.15C147.63,8.15,185.06,44.3,185.06,92.76Z" style="fill:#ff7a15"/><path d="M92.85,184.07c-47.15,0-87-41.82-87-91.32,0-52,34.84-86.89,86.68-86.89,54.91,0,94.76,36.54,94.76,86.89C187.31,147.37,149.35,184.07,92.85,184.07Zm-.3-173.63c-49.15,0-82.17,33.08-82.17,82.31,0,47,37.77,86.74,82.48,86.74s89.95-26.82,89.95-86.74C182.8,44.29,145.69,10.44,92.55,10.44Z" style="fill:#4c2a73"/><polyline points="59.95 75.14 74.23 88.67 54.69 94.97" style="fill:none;stroke:#4c2a73;stroke-linecap:round;stroke-linejoin:round;stroke-width:9.0229716399283px"/><polyline points="130.5 75.14 116.22 88.67 135.76 94.97" style="fill:none;stroke:#4c2a73;stroke-linecap:round;stroke-linejoin:round;stroke-width:9.0229716399283px"/><path d="M44,109.66c7.57-8.58,17.07-1,52-1s52-5,56.46,1.62-5.65,50.54-54.32,50.54S36.44,118.24,44,109.66Z" style="fill:#5e3380"/><path d="M96,189.05h0a22.93,22.93,0,0,1-22.87-22.87V116.87h45.73v49.32A22.93,22.93,0,0,1,96,189.05Z" style="fill:#804ec7"/><line x1="57.41" y1="116.87" x2="135.77" y2="116.87" style="fill:none;stroke:#fff;stroke-linecap:round;stroke-linejoin:round;stroke-width:9.0229716399283px"/><path d="M44.9,84.86c0,6.88-4.6,10.54-12.59,12.28-7.2,1.57-14.11-5.4-14.11-12.28s6-11.71,13.35-12.45C39.4,71.61,44.9,78,44.9,84.86Z" style="fill:#ff9515"/><path d="M148.86,84.86c0,6.88,4.6,10.54,12.59,12.28,7.2,1.57,14.11-5.4,14.11-12.28s-6-11.71-13.35-12.45C154.36,71.61,148.86,78,148.86,84.86Z" style="fill:#ff9515"/><path d="M36.86,155s-6.79-10.39-12.54-1.72c-9.25,12.51-5.25,29.38-5.25,29.38,1.73,6.58,18.77,15.29,29,16.26s19.24-16.47,22.45-20.15,6.26-11.33,2.21-15.26-9.38,3.35-9.38,3.35c4.62-5.56,5.28-7.55.5-10.93-3.64-2.57-9.18,4.76-9.18,4.76s16.79-20.76,22-27c4.79-5.8-2.44-10-5.41-7.42s-22.26,27-22.26,27,6.79-16.09,9.1-21.39c1.87-4.3,2-7-.73-8.39s-5.21-1.1-7.44,3.4C47.35,132.06,39.8,148,36.86,155c-3.34,7.95-7.47,4-7.47,4S35,163.23,36.86,155Z" style="fill:#ff7a15"/><path d="M48.95,201.2c-.35,0-.7,0-1.06,0-10.15-1-28.85-9.74-31-17.93-.19-.78-4.15-18.1,5.61-31.29,2.38-3.59,5.11-4.37,7-4.37h0c2.73,0,5.09,1.62,6.74,3.2,3.52-7.92,9.49-20.47,11.68-24.91,1.38-2.79,3-4.46,5-5.11a6.9,6.9,0,0,1,5.51.7c5.46,2.81,2.78,9,1.78,11.3-.63,1.46-1.61,3.74-2.69,6.27,5.2-6.43,10.71-13.1,12.3-14.49,2.32-2.05,6.25-1.73,8.76.7,2,2,3.25,5.75-.12,9.84-2.94,3.57-9.61,11.78-14.83,18.23a5.4,5.4,0,0,1,1.6.78c1.89,1.34,3.87,3,4.19,5.5a4.32,4.32,0,0,1,0,.53h.13a6.11,6.11,0,0,1,4.78,1.78c5.15,5,1.8,13.91-2.08,18.36-.62.71-1.45,2-2.49,3.49C65.3,190.32,58,201.2,48.95,201.2ZM29.46,152.07c-1.09,0-2.19.82-3.27,2.45-8.6,11.63-5,27.46-4.93,27.62,1.35,5.13,17,13.58,27.05,14.53,6.86.74,13.91-9.82,17.72-15.45a47.73,47.73,0,0,1,2.82-3.93C71.7,174,74,167.81,71.2,165.11a1.47,1.47,0,0,0-1.26-.52c-1.32.11-3,1.59-4,2.75l-.77.94a2.25,2.25,0,0,1-3.56-2.77c.1-.14.42-.56.92-1.12,1.14-1.42,2.55-3.34,2.43-4.23,0-.38-.49-1.11-2.33-2.41-1-.69-3.69,1.46-5.47,3.52l-.66.82a2.26,2.26,0,0,1-3.55-2.78c.11-.14.34-.45.68-.85,3.12-3.86,16.76-20.72,21.35-26.28.87-1.06,1.67-2.56.46-3.73-.83-.81-2.15-1-2.64-.56-2.07,1.82-14.28,17-22,26.73a2.26,2.26,0,0,1-3.85-2.28s6.8-16.11,9.11-21.41c2-4.61,1-5.12.3-5.49-1.3-.67-1.86-.49-2-.43-.73.24-1.56,1.25-2.35,2.83-2.52,5.1-10.06,21-13,28-1.53,3.63-3.54,5.73-6,6.23a6,6,0,0,1-5.15-1.52,2.25,2.25,0,0,1,3.1-3.27,1.57,1.57,0,0,0,1.15.37c.27-.06,1.13-.41,2.17-2.41-1.11-1.33-3-3.19-4.78-3.19Z" style="fill:#4c2a73"/></svg>