<svg xmlns="http://www.w3.org/2000/svg" viewBox="0 0 193.52 207.5"><title>icon_13</title><path d="M97.63,8.29c39.66,0,71.81,12.31,71.81,27.5,0,5.45-4.19,10.51-11.33,14.79,17.14,15,27.12,36.28,27.12,60.87,0,47.76-32,87.76-92.2,87.76-45.7,0-84.73-40-84.73-87.76,0-25.63,9.34-47.69,26-62.7-5.39-3.86-8.47-8.27-8.47-12.95,0-15.19,32.15-27.5,71.81-27.5M51.53,37.07c11.72-5.76,25.53-9,41.18-9,18,0,34.13,3.88,47.68,10.7,6-2.67,8.21-2.32,8.21-5.82,0-9.06-22.11-20-51-20s-52.27,7.34-52.27,16.4c0,2.8,2.24,5.43,6.18,7.73M97.63,0c-39.8,0-80.1,12.3-80.1,35.79a20.88,20.88,0,0,0,4.89,13.14C7.9,65.21,0,87.07,0,111.45c0,52.06,42.6,96,93,96,69.42,0,100.5-48.24,100.5-96,0-23-8-44-22.81-60.14,5.62-5.68,7-11.31,7-15.52C177.73,12.3,137.43,0,97.63,0Z" style="fill:#fff"/><path d="M185.23,111.45c0,47.76-32,87.76-92.2,87.76-45.7,0-84.73-40-84.73-87.76s32.18-83.4,84.43-83.4C147.81,28.05,185.23,63.68,185.23,111.45Z" style="fill:#ff7a15"/><path d="M93,201.46c-47.15,0-87-41.22-87-90C6,60.22,40.87,25.8,92.72,25.8c54.91,0,94.76,36,94.76,85.65C187.48,165.29,149.52,201.46,93,201.46Zm-.3-171.15c-49.15,0-82.17,32.61-82.17,81.14,0,46.35,37.77,85.5,82.48,85.5S183,170.51,183,111.45C183,63.67,145.86,30.31,92.72,30.31Z" style="fill:#4c2a73"/><path d="M96.76,140.15c-52.48,0-62.8-25.35-63.21-26.43A4.51,4.51,0,1,1,42,110.49c.07.15,9.1,20.64,54.79,20.64,36.16,0,56.75-21.88,57-22.1a4.51,4.51,0,1,1,6.64,6.11C159.41,116.16,136.83,140.15,96.76,140.15Z" style="fill:#4c2a73"/><path d="M97.63,67.81c-37,0-76.32-11.22-76.32-32s39.32-32,76.32-32,76.32,11.22,76.32,32S134.63,67.81,97.63,67.81Zm0-55c-38.52,0-67.3,12.14-67.3,23s28.78,23,67.3,23,67.3-12.14,67.3-23S136.15,12.8,97.63,12.8Z" style="fill:#4c2a73"/><path d="M97.63,50.25c-27.35,0-56.78-6.54-56.78-20.91S70.28,8.42,97.63,8.42,154.41,15,154.41,29.34,125,50.25,97.63,50.25Zm0-32.81c-31.51,0-47.76,8.34-47.76,11.9S66.12,41.23,97.63,41.23s47.76-8.34,47.76-11.89S129.14,17.44,97.63,17.44Z" style="fill:#4c2a73"/><path d="M97.63,8.29C58,8.29,25.82,20.61,25.82,35.79S58,63.3,97.63,63.3,169.44,51,169.44,35.79,137.29,8.29,97.63,8.29Zm0,37.45c-28.87,0-52.27-7.34-52.27-16.4s23.4-16.4,52.27-16.4,52.27,7.34,52.27,16.4S126.5,45.74,97.63,45.74Z" style="fill:#804ec7"/><path d="M79.2,103.13a4.51,4.51,0,0,1-4.48-4.05c-.11-1-1.32-9.7-8.85-9.7-6.31,0-8.87,6.07-9,6.33a4.51,4.51,0,0,1-8.39-3.31c.19-.49,4.84-12,17.37-12S83.06,92,83.7,98.16a4.52,4.52,0,0,1-4,4.95Z" style="fill:#4c2a73"/><path d="M111.63,103.12l-.49,0a4.5,4.5,0,0,1-4-4.93c.63-6.16,5.17-17.8,17.83-17.8s17.18,11.55,17.37,12a4.51,4.51,0,0,1-8.4,3.3c-.14-.34-2.71-6.32-9-6.32-7.53,0-8.74,8.73-8.86,9.72A4.53,4.53,0,0,1,111.63,103.12Z" style="fill:#4c2a73"/><path d="M175,87.83c1.89,6.78-4.79,14.25-11.57,16.14s-12.23-1.7-13-9.29c-.69-7,2.59-11.53,9.37-13.42S173.13,81.06,175,87.83Z" style="fill:#ff9515"/><path d="M17.44,87.83C15.55,94.61,22.23,102.08,29,104s12.23-1.7,13-9.29c.69-7-2.59-11.53-9.37-13.42S19.33,81.06,17.44,87.83Z" style="fill:#ff9515"/></svg>